<?xml version="1.0" encoding="UTF-8" standalone="no"?>
<!-- Created with Inkscape (http://www.inkscape.org/) -->

<svg
    width="512"
    height="512"
    viewBox="0 0 512 512"
    version="1.1"
    id="svg1"
    inkscape:version="1.3 (0e150ed6c4, 2023-07-21)"
    xml:space="preserve"
    sodipodi:docname="resourcess.svg"
    inkscape:export-filename="resourcess.png"
    inkscape:export-xdpi="96"
    inkscape:export-ydpi="96"
    xmlns:inkscape="http://www.inkscape.org/namespaces/inkscape"
    xmlns:sodipodi="http://sodipodi.sourceforge.net/DTD/sodipodi-0.dtd"
    xmlns="http://www.w3.org/2000/svg"
><sodipodi:namedview
     id="namedview1"
     pagecolor="#505050"
     bordercolor="#eeeeee"
     borderopacity="1"
     inkscape:showpageshadow="0"
     inkscape:pageopacity="0"
     inkscape:pagecheckerboard="true"
     inkscape:deskcolor="#4f4f4f"
     inkscape:document-units="px"
     borderlayer="true"
     showborder="true"
     shape-rendering="auto"
     inkscape:zoom="0.28833008"
     inkscape:cx="-175.14649"
     inkscape:cy="1864.1829"
     inkscape:window-width="2560"
     inkscape:window-height="1377"
     inkscape:window-x="-8"
     inkscape:window-y="-8"
     inkscape:window-maximized="1"
     inkscape:current-layer="layer6"><inkscape:page
       x="0"
       y="0"
       width="512"
       height="512"
       id="page1"
       margin="0"
       bleed="0" /><inkscape:page
    x="0"
    y="512"
    width="512"
    height="512"
    id="page2"
    margin="0"
    bleed="0"/><inkscape:page
    x="0"
    y="1024"
    width="512"
    height="512"
    id="page3"
    margin="0"
    bleed="0"/><inkscape:page
    x="0"
    y="1536"
    width="512"
    height="512"
    id="page4"
    margin="0"
    bleed="0"/><inkscape:page
    x="0"
    y="2048"
    width="512"
    height="512"
    id="page5"
    margin="0"
    bleed="0"/><inkscape:page
    x="0"
    y="2560"
    width="512"
    height="512"
    id="page6"
    margin="0"
    bleed="0"/></sodipodi:namedview>
    <defs
        id="defs1"/>
    <g
        inkscape:label="Ebene 1"
        inkscape:groupmode="layer"
        id="layer1"><path
       d="m 453.10088,169.76837 a 61.59402,61.59402 0 0 1 -61.59404,61.59402 c -26.6086,0 -49.27521,-16.99993 -57.652,-40.40566 -10.84055,9.60867 -25.13037,15.76807 -40.89843,15.76807 -13.79706,0 -26.60862,-4.68115 -36.95641,-12.31881 -10.3478,7.63766 -22.91298,12.31881 -36.95642,12.31881 -15.76805,0 -30.05788,-6.1594 -40.89841,-15.76807 -8.3768,23.40573 -31.0434,40.40566 -57.65201,40.40566 A 61.59402,61.59402 0 0 1 58.899132,169.76837 c 0,-30.55063 22.420226,-55.92735 51.738968,-60.60851 -1.47825,-4.18838 -2.46376,-8.62316 -2.46376,-13.304306 a 36.956411,36.956411 0 0 1 36.95641,-36.956419 c 4.92753,0 9.60869,0.985505 13.79706,2.710137 4.18841,-15.768057 18.47822,-27.347735 35.47818,-27.347735 6.15939,0 12.31881,1.724633 16.75356,4.188395 C 219.04358,21.94273 236.04354,9.6239246 256,9.6239246 c 19.95646,0 36.95641,12.3188054 44.84044,28.8260074 4.43476,-2.463762 10.59417,-4.188395 16.75359,-4.188395 16.99993,0 31.28976,11.579678 35.47814,27.347735 4.18839,-1.724632 8.86955,-2.710137 13.79707,-2.710137 a 36.956411,36.956411 0 0 1 36.95641,36.956419 c 0,4.681146 -0.98551,9.115926 -2.46376,13.304306 29.31875,4.68116 51.73899,30.05788 51.73899,60.60851 M 206.7248,256.00001 a 24.637607,24.637607 0 0 0 -24.63764,24.63761 24.637607,24.637607 0 0 0 24.63764,24.6376 24.637607,24.637607 0 0 0 24.63758,-24.6376 24.637607,24.637607 0 0 0 -24.63758,-24.63761 m 98.5504,0 a 24.637607,24.637607 0 0 0 -24.63758,24.63761 24.637607,24.637607 0 0 0 24.63758,24.6376 24.637607,24.637607 0 0 0 24.63763,-24.6376 24.637607,24.637607 0 0 0 -24.63763,-24.63761 m 153.49232,-33.0144 c -15.76807,19.95647 -39.91293,33.0144 -67.26068,33.0144 -11.08693,0 -21.68109,-2.46375 -31.78251,-6.65216 -0.24637,62.8259 -9.36229,138.70973 -43.36218,177.88353 -12.81158,14.5362 -28.33326,22.42024 -48.04335,24.884 v -48.28972 h -24.6376 v 48.28972 c -19.71009,-2.46376 -35.23178,-10.10143 -48.04335,-24.884 -34.24626,-39.42017 -43.36219,-114.81125 -43.60856,-177.63715 -9.85504,3.94203 -20.4492,6.40578 -31.53613,6.40578 -27.347748,0 -51.492608,-13.05793 -67.260681,-33.0144 -21.92746,21.92747 -43.6085589,33.0144 -43.6085589,33.0144 0,0 24.6376129,49.27521 73.9128229,49.27521 8.869541,0 15.768069,-0.98552 21.681097,-2.21738 8.37679,94.11566 41.88393,199.31824 150.78216,199.31824 108.89824,0 142.40537,-105.20258 150.78217,-199.31824 5.91301,1.23186 12.81155,2.21738 21.68108,2.21738 49.27522,0 73.91283,-49.27521 73.91283,-49.27521 0,0 -21.6811,-11.08693 -43.60856,-33.0144 z"
       id="path1"
       style="fill:#ffffff;stroke:#000000;stroke-width:19.2482;stroke-linecap:round;stroke-linejoin:round;stroke-dasharray:none;stroke-opacity:1" /></g>
    <g
        inkscape:groupmode="layer"
        id="layer2"
        inkscape:label="Ebene 2"><path
       d="m 150.66113,908.41345 c -18.7219,-26.16554 -18.7219,-56.39126 -18.7219,-86.39141 37.66935,22.55651 75.11316,45.11301 94.06063,71.50412 l 7.44363,12.63165 v -51.42884 c -33.83474,-20.30085 -65.86499,-41.05283 -82.78236,-64.73715 -18.7219,-26.16556 -18.7219,-56.39126 -18.7219,-86.39141 37.66935,22.5565 75.11316,45.113 94.06063,71.50411 l 7.44363,13.08277 v -51.87995 c -33.83474,-20.30086 -65.86499,-41.05284 -82.78236,-64.73717 -18.7219,-26.16555 -18.7219,-56.39126 -18.7219,-86.39142 37.66935,22.5565 75.11316,45.11301 94.06063,71.50412 2.25564,3.15791 4.28573,6.54139 6.09025,10.15041 -3.83461,-13.98502 -6.31583,-27.06779 -6.54139,-40.60169 -0.22556,-34.06032 14.66172,-69.02291 29.54903,-103.98548 15.56399,33.38363 31.12796,66.99282 31.35353,101.05314 0.22556,14.21061 -2.25565,28.64676 -6.31582,42.85736 1.80451,-3.15792 3.60904,-6.31583 5.86469,-9.47374 18.94745,-26.39111 56.39125,-48.94762 94.06062,-71.50412 0,30.00016 0,60.22587 -18.7219,86.39142 -16.91738,23.68433 -48.94761,44.43631 -82.78237,64.73717 v 51.87995 l 7.44365,-13.08277 c 18.94745,-26.39111 56.39125,-48.94761 94.06062,-71.50411 0,30.00015 0,60.22585 -18.7219,86.39141 -16.91738,23.68432 -48.94761,44.4363 -82.78237,64.73715 v 51.42884 l 7.44365,-12.63165 c 18.94745,-26.39111 56.39125,-48.94761 94.06062,-71.50412 0,30.00015 0,60.22587 -18.7219,86.39141 -16.91738,23.68433 -48.94761,44.43632 -82.78237,64.73716 v 40.60179 H 233.44349 V 973.15061 C 199.60875,952.84977 167.5785,932.09778 150.66113,908.41345 Z"
       id="path1-9"
       style="fill:#ffffff;stroke:#000000;stroke-width:20.4952;stroke-linecap:round;stroke-linejoin:round;stroke-dasharray:none;stroke-opacity:1" /></g>
    <g
        inkscape:groupmode="layer"
        id="layer3"
        inkscape:label="Ebene 3"><path
       d="M 34.261635,1366.2316 H 256 v 123.1879 H 34.261635 V 1366.2316 M 9.6240406,1218.406 H 157.44964 v 123.188 H 9.6240406 v -123.188 m 172.4631694,0 h 147.82558 v 123.188 H 182.0872 v -123.188 m 172.46319,0 h 147.82557 v 123.188 H 354.55039 v -123.188 m -73.91281,147.8256 h 197.10079 v 123.1879 H 280.63758 V 1366.2316 M 34.261635,1070.5805 H 231.36242 v 123.1879 H 34.261635 v -123.1879 m 221.738365,0 h 221.73837 v 123.1879 H 256 Z"
       id="path1-34"
       style="fill:#ffffff;stroke:#000000;stroke-width:20;stroke-linecap:round;stroke-linejoin:round;stroke-dasharray:none;stroke-opacity:1" /></g>
    <g
        inkscape:groupmode="layer"
        id="layer4"
        inkscape:label="Ebene 4"><path
       d="m 202.10522,2034.5265 v -80.8421 H 13.4735 l 134.73695,-134.737 H 67.368281 L 202.10522,1684.2105 H 121.26305 L 256,1549.4735 l 134.73695,134.737 h -80.84217 l 134.73694,134.7369 h -80.84217 l 134.73695,134.737 H 309.89478 v 80.8421 z"
       id="path1-1"
       style="fill:#ffffff;stroke:#000000;stroke-width:26.947;stroke-linecap:round;stroke-linejoin:round;stroke-dasharray:none;stroke-opacity:1" /></g>
    <g
        inkscape:groupmode="layer"
        id="layer5"
        inkscape:label="Ebene 5"><path
       id="rect1"
       style="fill:#ffffff;stroke:none;stroke-width:28.444;stroke-linecap:round;stroke-linejoin:round;stroke-miterlimit:81.6;stroke-dasharray:none;stroke-opacity:1"
       d="m 326.56836,2160.5039 -42.21094,6.6328 42.88672,55.8145 24.5625,7.6445 c 4.19668,1.0864 6.88556,5.1782 6.21752,9.4614 -0.66804,4.2833 -4.47527,7.3619 -8.80346,7.1187 -0.8588,0.01 -1.71303,-0.1256 -2.52929,-0.3926 l -23.04493,-7.1387 -46.20312,33.7246 c -1.44181,1.087 -3.19632,1.6789 -5.00195,1.6875 -2.6893,-0.027 -5.20894,-1.3186 -6.80079,-3.4863 -2.75137,-3.7507 -1.91911,-9.0249 1.85352,-11.7461 l 42.83008,-31.4765 -42.09961,-54.6348 -36.98438,37.8848 11.91602,78.6914 57.2207,27.6543 89.25782,-57.67 v -17.705 l -26.58594,-61.8301 z m -140.57617,56.8262 -58.23047,46.541 45.47266,62.6152 53.28515,-34.625 -11.24219,-74.5312 z m 211.79297,57.6133 -87.62891,56.7695 9.89258,64.0781 c 0.5095,3.3334 -1.01614,6.6497 -3.87891,8.4317 l -25.01172,15.5136 11.24219,28.1035 h 72.95703 v -62.6718 l -46.0332,-40.92 c -3.4248,-3.1194 -3.70413,-8.4129 -0.62666,-11.8754 3.07748,-3.4625 8.36725,-3.8061 11.86689,-0.771 l 45.30469,40.582 93.81055,-21.584 -20.57227,-34.7363 z m -280.64649,3.0351 -26.417967,47.7207 49.292967,43.0547 20.68555,-30.6328 z m 112.86524,31.6445 -48.39453,31.6465 21.02148,50.586 76.10547,15.5703 23.71875,-14.5586 -9.10547,-59.6367 -45.75195,-21.9766 10.06054,42.8867 c 0.8681,4.4535 -1.94398,8.7954 -6.36306,9.8246 -4.41908,1.0291 -8.86015,-1.6235 -10.04905,-6.0023 z m -181.214848,26.418 23.158204,36.8731 H 119.33008 L 76.892578,2336.041 Z m -12.927734,11.1289 -18.099609,55.1973 16.863281,36.0859 16.074219,-26.4746 c 2.424826,-3.9816 7.616243,-5.247 11.601247,-2.8278 3.985004,2.4193 5.257692,7.6089 2.844065,11.5973 l -16.861328,27.0918 h 72.675777 l 10.73633,-58.0625 H 67.337891 c -2.903286,0.024 -5.608932,-1.4678 -7.138672,-3.9355 z m 133.605472,8.4883 -19.56055,28.9473 -11.68945,63.2343 31.70117,0.1114 17.5918,-48.3946 z m 311.61914,11.916 -89.08985,20.7403 v 59.5253 h 66.94336 z m -279.18555,41.3692 -13.99609,38.8964 h 96.45312 l -9.89258,-24.1132 z"
       sodipodi:nodetypes="ccccccscccccccccccccccccccccccccccccccsccccccccccccccccccscccccccccccsccccccccccccccccccccccc" />
        <path
            d="m 503.56875,2447.8395 h -27.09233 l 24.50675,-89.4271 a 0.73070581,0.73070581 0 0 1 0,-0.3373 4.9463162,4.9463162 0 0 0 0,-0.8993 3.7097372,3.7097372 0 0 0 0,-0.7869 v -0.8431 c 0,-0.2811 0,-0.5621 0,-0.8431 a 0.95553837,0.95553837 0 0 0 0,-0.3935 v -0.4497 a 3.6535291,3.6535291 0 0 0 0,-0.7307 c 0,-0.3372 0,-0.6183 -0.39345,-0.8993 v -0.3373 l -27.93545,-46.2593 a 8.6560535,8.6560535 0 0 0 -2.81041,-2.7542 l -63.5714,-42.5495 v -19.5043 a 8.5436372,8.5436372 0 0 0 -0.6745,-3.3162 l -28.44131,-66.0446 a 8.2625964,8.2625964 0 0 0 -3.65353,-4.047 l -41.31299,-23.0453 a 8.7122616,8.7122616 0 0 0 -5.62081,-0.9556 l -59.07475,9.2744 h -0.28104 a 6.5763523,6.5763523 0 0 0 -2.24833,0.7307 v 0 a 5.9580628,5.9580628 0 0 0 -1.12416,0.6745 6.4077278,6.4077278 0 0 0 -0.61829,0.6183 v 0 l -44.17961,45.3037 h -36.19803 a 8.487429,8.487429 0 0 0 -5.28357,1.8549 l -66.60664,53.3977 v 0 a 9.274343,9.274343 0 0 0 -1.91108,2.3046 v 0 l -33.724884,60.9296 H 33.275248 l -2.135909,0.3373 H 30.80209 a 7.1384337,7.1384337 0 0 0 -1.742452,0.8431 h -0.28104 l -0.393457,0.3372 a 9.3305511,9.3305511 0 0 0 -1.51762,1.4614 v 0 a 9.4991755,9.4991755 0 0 0 -1.067955,2.1359 c 0,0 0,0 0,0 l -25.34987088,76.668 a 8.5436372,8.5436372 0 0 0 0.33724883,6.2391 L 20.178752,2447.8395 H 8.4312509 a 8.43125,8.43125 0 1 0 0,16.8625 H 503.56875 a 8.43125,8.43125 0 0 0 0,-16.8625 z m -44.46064,-131.9767 20.57218,34.7367 -93.81139,21.5839 -45.30375,-40.5823 a 8.4604453,8.4604453 0 0 0 -11.24163,12.6468 l 46.03447,40.9196 v 62.672 h -72.95818 l -11.24161,-28.104 25.01261,-15.5135 a 8.4312209,8.4312209 0 0 0 3.87836,-8.4312 l -9.89263,-64.0773 87.62849,-56.7702 z m -320.89227,131.9767 11.69129,-63.2341 19.56044,-28.9472 18.04281,43.8986 -17.59315,48.3952 z m -61.323076,-111.798 42.437146,36.8726 H 71.946449 l -23.157754,-36.8726 z m 13.827202,-10.3423 26.417834,-47.7207 43.5613,60.1427 -20.6846,30.6335 z m 139.283764,-16.0755 11.24163,48.339 a 8.4312209,8.4312209 0 0 0 16.41278,-3.8221 l -10.06126,-42.8868 45.75343,21.9773 9.10571,59.6369 -23.71983,14.5579 -76.10581,-15.5697 -21.02185,-50.5873 z m -28.10406,99.3198 72.56471,14.7828 9.89263,24.1132 h -96.45317 z m 161.14873,-228.2051 26.58645,61.829 v 17.7056 l -89.25853,57.6695 -57.21988,-27.6544 -11.91613,-78.6914 36.98496,-37.8843 42.09989,54.6343 -42.83059,31.4766 a 8.3750127,8.3750127 0 0 0 -1.85487,11.7475 8.5436372,8.5436372 0 0 0 6.80118,3.4849 8.3750127,8.3750127 0 0 0 5.00253,-1.6862 l 46.20308,-33.7249 23.04534,7.1384 a 7.9253477,7.9253477 0 0 0 2.52937,0.3935 8.4312209,8.4312209 0 0 0 2.58557,-16.5814 l -24.56296,-7.6443 -42.8868,-55.8147 42.21231,-6.6326 z m -177.05564,36.5915 h 29.28444 l 11.24163,74.532 -53.28531,34.6243 -45.47238,-62.6159 z m -150.131937,129.8409 24.338124,38.6712 a 8.3188046,8.3188046 0 0 0 7.138434,3.9345 H 131.6957 l -10.73575,58.063 H 48.282821 l 16.862442,-27.0923 a 8.4492351,8.4492351 0 0 0 -14.445491,-8.7684 l -16.075528,26.474 -16.862442,-36.0856 z m 356.134767,100.6687 v -59.5244 l 89.0899,-20.7408 -22.146,80.2652 z"
            id="path1-2"
            style="display:inline;fill:#000000;stroke:none;stroke-width:5.62081;stroke-opacity:1"/>
        <g
            id="g8"
            transform="matrix(8.2161413,0,0,8.2161413,-2383.4704,-16945.627)"><text
         x="0"
         y="115"
         fill="#000000"
         font-size="5px"
         font-weight="bold"
         font-family="'Helvetica Neue', Helvetica, Arial-Unicode, Arial, Sans-serif"
         id="text1"
         transform="translate(217.16,2228.41)">Created by Jan Niklas Prause</text>
            <text
                x="0"
                y="120"
                fill="#000000"
                font-size="5px"
                font-weight="bold"
                font-family="'Helvetica Neue', Helvetica, Arial-Unicode, Arial, Sans-serif"
                id="text2"
                transform="translate(217.16,2228.41)">from the Noun Project</text></g></g>
    <g
        inkscape:groupmode="layer"
        id="layer6"
        inkscape:label="Ebene 6"><path
       d="M 10.044178,2950.1579 43.583633,2838.3596 H 200.10109 l 33.53945,111.7983 H 10.044178 m 268.315642,0 33.53944,-111.7983 h 156.51746 l 33.53945,111.7983 H 278.35982 m -156.51745,-156.5175 33.53946,-111.7983 h 156.51743 l 33.53946,111.7983 H 121.84237"
       id="path1-3"
       style="fill:#ffffff;stroke:#000000;stroke-width:20.0887;stroke-linecap:round;stroke-linejoin:round;stroke-dasharray:none;stroke-opacity:1"
       sodipodi:nodetypes="ccccccccccccccc" /></g></svg>
