<?xml version="1.0" encoding="UTF-8" standalone="no"?>
<!-- Created with Inkscape (http://www.inkscape.org/) -->

<svg
    width="512"
    height="512"
    viewBox="0 0 512 512"
    version="1.1"
    id="svg1"
    inkscape:version="1.3 (0e150ed6c4, 2023-07-21)"
    sodipodi:docname="knight.svg"
    inkscape:export-filename="knight.png"
    inkscape:export-xdpi="96"
    inkscape:export-ydpi="96"
    xmlns:inkscape="http://www.inkscape.org/namespaces/inkscape"
    xmlns:sodipodi="http://sodipodi.sourceforge.net/DTD/sodipodi-0.dtd"
    xmlns="http://www.w3.org/2000/svg"
>
    <sodipodi:namedview
        id="namedview1"
        pagecolor="#505050"
        bordercolor="#eeeeee"
        borderopacity="1"
        inkscape:showpageshadow="0"
        inkscape:pageopacity="0"
        inkscape:pagecheckerboard="true"
        inkscape:deskcolor="#4f4f4f"
        inkscape:document-units="px"
        borderlayer="true"
        showborder="true"
        shape-rendering="auto"
        showguides="true"
        inkscape:zoom="1"
        inkscape:cx="45"
        inkscape:cy="44.5"
        inkscape:window-width="2560"
        inkscape:window-height="1377"
        inkscape:window-x="-8"
        inkscape:window-y="-8"
        inkscape:window-maximized="1"
        inkscape:current-layer="layer1">
        <sodipodi:guide
            position="152.90179,400.29198"
            orientation="0,-1"
            id="guide4"
            inkscape:locked="false"/>
    </sodipodi:namedview>
    <defs
        id="defs1"/>
    <g
        inkscape:label="Ebene 1"
        inkscape:groupmode="layer"
        id="layer1">
        <path
            d="m 254.45508,7.5859375 c -3.54592,0.053165 -7.04729,0.2841501 -10.4961,0.6855469 -3.4488,0.4013967 -6.8449,0.9727719 -10.17968,1.7050781 -3.33479,0.7323065 -6.60863,1.6259825 -9.8125,2.6718755 -3.20388,1.045892 -6.33847,2.24378 -9.39453,3.585937 -3.05607,1.342157 -6.03442,2.828121 -8.92579,4.449219 -2.89136,1.621097 -5.69648,3.377049 -8.40625,5.259765 -2.70976,1.882716 -5.32466,3.89252 -7.83593,6.019532 -2.51128,2.127011 -4.91896,4.372578 -7.21485,6.726562 -2.29589,2.353984 -4.47936,4.817226 -6.54297,7.380859 -2.0636,2.563634 -4.00783,5.226461 -5.82226,7.982422 -1.81443,2.755961 -3.49852,5.604191 -5.04688,8.535157 -1.54835,2.930965 -2.95922,5.944556 -4.22461,9.033203 -1.26538,3.088646 -2.38604,6.253416 -3.35156,9.482422 -0.96552,3.229005 -1.77702,6.522958 -2.42578,9.875 -0.64876,3.352041 -1.13411,6.760995 -1.44922,10.218754 -0.3151,3.45775 -0.45927,6.96557 -0.42383,10.51171 0.0354,3.54615 0.24866,7.04729 0.63282,10.49805 0.38415,3.45077 0.93866,6.85105 1.65429,10.18945 0.71564,3.33841 1.59318,6.61516 2.62305,9.82422 1.02987,3.20906 2.21219,6.34938 3.53906,9.41211 1.32687,3.06274 2.79767,6.04784 4.4043,8.94727 1.60663,2.89943 3.3496,5.71445 5.21875,8.43359 1.86915,2.71915 3.86408,5.34336 5.97851,7.86524 2.11444,2.52187 4.34698,4.94042 6.68946,7.24804 1.88495,1.85691 3.89152,3.58667 5.91406,5.29492 L 7.6894531,504.42578 H 504.31055 L 322.62109,189.73047 c 2.22451,-1.85941 4.39893,-3.77598 6.45508,-5.81445 2.31866,-2.29872 4.52675,-4.70757 6.61524,-7.21875 2.08849,-2.51119 4.05716,-5.12454 5.89843,-7.83204 1.84128,-2.7075 3.5558,-5.51076 5.13282,-8.39843 1.57701,-2.88767 3.01679,-5.86042 4.3125,-8.91211 1.2957,-3.0517 2.44796,-6.18129 3.44531,-9.38086 0.99735,-3.19957 1.83953,-6.46948 2.52148,-9.80078 0.68195,-3.3313 1.20324,-6.72499 1.55274,-10.17188 0.3495,-3.44688 0.52734,-6.94586 0.52734,-10.49219 -0.0709,-3.54561 -0.31965,-7.0599 -0.73828,-10.52929 -0.41863,-3.469398 -1.0069,-6.894232 -1.75586,-10.267581 -0.74896,-3.373349 -1.65881,-6.693696 -2.7207,-9.951172 -1.06189,-3.257475 -2.2754,-6.452443 -3.63282,-9.574218 -1.35741,-3.121775 -2.85861,-6.170472 -4.49414,-9.136719 -1.63552,-2.966247 -3.40454,-5.849733 -5.30078,-8.640625 -1.89623,-2.790892 -3.91906,-5.490228 -6.05859,-8.085938 -2.13954,-2.595709 -4.39629,-5.08805 -6.76172,-7.46875 -2.36543,-2.380699 -4.84015,-4.64906 -7.41406,-6.794921 -2.57392,-2.145862 -5.24673,-4.16935 -8.01172,-6.060547 -2.76499,-1.891197 -5.62188,-3.650873 -8.56055,-5.267578 -2.93866,-1.616706 -5.95975,-3.091677 -9.05469,-4.414063 -3.09493,-1.322386 -6.26425,-2.491761 -9.49804,-3.5 -3.23379,-1.008239 -6.53148,-1.855032 -9.88672,-2.5292967 -3.35524,-0.6742652 -6.76728,-1.1756299 -10.22656,-1.4960938 -3.45929,-0.3204639 -6.9658,-0.4594148 -10.51172,-0.40625 z"
            style="fill:#ffffff;stroke:#000000;stroke-width:15;stroke-linecap:round;stroke-linejoin:round;stroke-miterlimit:81.6"
            id="path7"/>
    </g>
</svg>
